<?xml version="1.0" encoding="UTF-8" standalone="no"?>
<!DOCTYPE svg PUBLIC "-//W3C//DTD SVG 1.1//EN" "http://www.w3.org/Graphics/SVG/1.1/DTD/svg11.dtd">
<svg width="792pt" height="612pt" viewBox="0 0 792 612" overflow="visible" version="1.1" xmlns="http://www.w3.org/2000/svg">
  <path d="M157.7308,125.2592 L674.9775,108.4957 L707.0978,404.3217 L177.6675,427.0016 z" stroke="#FFFFFF" stroke-width="0.24" fill-opacity="0" />
  <path d="M84.90226,201.7619 L602.149,184.9984 L634.2692,480.8243 L104.839,503.5043 z" stroke="#FFFFFF" stroke-width="0.24" fill-opacity="0" />
  <path d="M104.3906,496.7186 L110.916,503.244" stroke="#FFFFFF" stroke-width="0.24" fill-opacity="0" />
  <path d="M103.872,488.8698 L117.9451,502.9429" stroke="#FFFFFF" stroke-width="0.24" fill-opacity="0" />
  <path d="M103.3534,481.021 L124.9742,502.6418" stroke="#FFFFFF" stroke-width="0.24" fill-opacity="0" />
  <path d="M102.8349,473.1722 L132.0033,502.3406" stroke="#FFFFFF" stroke-width="0.24" fill-opacity="0" />
  <path d="M102.3163,465.3234 L139.0324,502.0396" stroke="#FFFFFF" stroke-width="0.24" fill-opacity="0" />
  <path d="M101.7977,457.4746 L146.0615,501.7384" stroke="#FFFFFF" stroke-width="0.24" fill-opacity="0" />
  <path d="M101.2791,449.6258 L153.0906,501.4373" stroke="#FFFFFF" stroke-width="0.24" fill-opacity="0" />
  <path d="M100.7605,441.777 L160.1197,501.1362" stroke="#FFFFFF" stroke-width="0.24" fill-opacity="0" />
  <path d="M100.2419,433.9282 L167.1488,500.8351" stroke="#FFFFFF" stroke-width="0.24" fill-opacity="0" />
  <path d="M99.72333,426.0794 L174.1779,500.534" stroke="#FFFFFF" stroke-width="0.24" fill-opacity="0" />
  <path d="M99.20476,418.2306 L181.207,500.2328" stroke="#FFFFFF" stroke-width="0.24" fill-opacity="0" />
  <path d="M98.68617,410.3818 L188.2361,499.9317" stroke="#FFFFFF" stroke-width="0.24" fill-opacity="0" />
  <path d="M98.16758,402.533 L195.2652,499.6306" stroke="#FFFFFF" stroke-width="0.24" fill-opacity="0" />
  <path d="M97.64899,394.6842 L202.2943,499.3295" stroke="#FFFFFF" stroke-width="0.24" fill-opacity="0" />
  <path d="M97.13042,386.8354 L209.3234,499.0284" stroke="#FFFFFF" stroke-width="0.24" fill-opacity="0" />
  <path d="M96.61183,378.9866 L216.3525,498.7273" stroke="#FFFFFF" stroke-width="0.24" fill-opacity="0" />
  <path d="M96.09324,371.1378 L223.3816,498.4261" stroke="#FFFFFF" stroke-width="0.24" fill-opacity="0" />
  <path d="M95.57465,363.289 L230.4107,498.125" stroke="#FFFFFF" stroke-width="0.24" fill-opacity="0" />
  <path d="M95.05608,355.4402 L237.4398,497.8239" stroke="#FFFFFF" stroke-width="0.24" fill-opacity="0" />
  <path d="M94.53748,347.5914 L244.4689,497.5228" stroke="#FFFFFF" stroke-width="0.24" fill-opacity="0" />
  <path d="M94.0189,339.7426 L251.498,497.2217" stroke="#FFFFFF" stroke-width="0.24" fill-opacity="0" />
  <path d="M93.50031,331.8938 L258.5271,496.9206" stroke="#FFFFFF" stroke-width="0.24" fill-opacity="0" />
  <path d="M92.98174,324.045 L265.5562,496.6194" stroke="#FFFFFF" stroke-width="0.24" fill-opacity="0" />
  <path d="M92.46314,316.1962 L272.5853,496.3183" stroke="#FFFFFF" stroke-width="0.24" fill-opacity="0" />
  <path d="M91.94456,308.3474 L279.6144,496.0172" stroke="#FFFFFF" stroke-width="0.24" fill-opacity="0" />
  <path d="M91.42596,300.4986 L286.6435,495.7161" stroke="#FFFFFF" stroke-width="0.24" fill-opacity="0" />
  <path d="M90.90739,292.6498 L293.6726,495.415" stroke="#FFFFFF" stroke-width="0.24" fill-opacity="0" />
  <path d="M90.3888,284.801 L300.7017,495.1139" stroke="#FFFFFF" stroke-width="0.24" fill-opacity="0" />
  <path d="M89.87022,276.9522 L307.7308,494.8127" stroke="#FFFFFF" stroke-width="0.24" fill-opacity="0" />
  <path d="M89.35162,269.1034 L314.7599,494.5116" stroke="#FFFFFF" stroke-width="0.24" fill-opacity="0" />
  <path d="M88.83305,261.2546 L321.789,494.2105" stroke="#FFFFFF" stroke-width="0.24" fill-opacity="0" />
  <path d="M88.31446,253.4058 L328.8181,493.9094" stroke="#FFFFFF" stroke-width="0.24" fill-opacity="0" />
  <path d="M87.79588,245.557 L335.8472,493.6083" stroke="#FFFFFF" stroke-width="0.24" fill-opacity="0" />
  <path d="M87.27728,237.7082 L342.8763,493.3072" stroke="#FFFFFF" stroke-width="0.24" fill-opacity="0" />
  <path d="M86.75871,229.8594 L349.9054,493.0061" stroke="#FFFFFF" stroke-width="0.24" fill-opacity="0" />
  <path d="M86.24012,222.0106 L356.9344,492.7049" stroke="#FFFFFF" stroke-width="0.24" fill-opacity="0" />
  <path d="M85.72153,214.1618 L363.9636,492.4038" stroke="#FFFFFF" stroke-width="0.24" fill-opacity="0" />
  <path d="M85.20294,206.313 L370.9926,492.1027" stroke="#FFFFFF" stroke-width="0.24" fill-opacity="0" />
  <path d="M87.88535,201.6652 L378.0218,491.8016" stroke="#FFFFFF" stroke-width="0.24" fill-opacity="0" />
  <path d="M94.98546,201.4351 L385.0508,491.5005" stroke="#FFFFFF" stroke-width="0.24" fill-opacity="0" />
  <path d="M102.0856,201.205 L392.08,491.1994" stroke="#FFFFFF" stroke-width="0.24" fill-opacity="0" />
  <path d="M109.1857,200.9749 L399.109,490.8983" stroke="#FFFFFF" stroke-width="0.24" fill-opacity="0" />
  <path d="M116.2858,200.7448 L406.1382,490.5971" stroke="#FFFFFF" stroke-width="0.24" fill-opacity="0" />
  <path d="M123.3859,200.5146 L413.1672,490.296" stroke="#FFFFFF" stroke-width="0.24" fill-opacity="0" />
  <path d="M130.486,200.2845 L420.1964,489.9949" stroke="#FFFFFF" stroke-width="0.24" fill-opacity="0" />
  <path d="M137.5861,200.0544 L427.2254,489.6938" stroke="#FFFFFF" stroke-width="0.24" fill-opacity="0" />
  <path d="M144.6862,199.8243 L434.2545,489.3927" stroke="#FFFFFF" stroke-width="0.24" fill-opacity="0" />
  <path d="M151.7863,199.5942 L441.2836,489.0916" stroke="#FFFFFF" stroke-width="0.24" fill-opacity="0" />
  <path d="M158.8864,199.3641 L448.3127,488.7904" stroke="#FFFFFF" stroke-width="0.24" fill-opacity="0" />
  <path d="M165.9865,199.134 L455.3418,488.4893" stroke="#FFFFFF" stroke-width="0.24" fill-opacity="0" />
  <path d="M173.0866,198.9039 L462.3709,488.1882" stroke="#FFFFFF" stroke-width="0.24" fill-opacity="0" />
  <path d="M180.1867,198.6738 L469.4,487.8871" stroke="#FFFFFF" stroke-width="0.24" fill-opacity="0" />
  <path d="M187.2868,198.4437 L476.4291,487.586" stroke="#FFFFFF" stroke-width="0.24" fill-opacity="0" />
  <path d="M194.3869,198.2136 L483.4582,487.2849" stroke="#FFFFFF" stroke-width="0.24" fill-opacity="0" />
  <path d="M201.4871,197.9835 L490.4873,486.9837" stroke="#FFFFFF" stroke-width="0.24" fill-opacity="0" />
  <path d="M208.5872,197.7534 L497.5164,486.6826" stroke="#FFFFFF" stroke-width="0.24" fill-opacity="0" />
  <path d="M215.6873,197.5233 L504.5455,486.3815" stroke="#FFFFFF" stroke-width="0.24" fill-opacity="0" />
  <path d="M222.7874,197.2932 L511.5746,486.0804" stroke="#FFFFFF" stroke-width="0.24" fill-opacity="0" />
  <path d="M229.8875,197.063 L518.6037,485.7793" stroke="#FFFFFF" stroke-width="0.24" fill-opacity="0" />
  <path d="M236.9876,196.8329 L525.6328,485.4781" stroke="#FFFFFF" stroke-width="0.24" fill-opacity="0" />
  <path d="M244.0877,196.6028 L532.6619,485.177" stroke="#FFFFFF" stroke-width="0.24" fill-opacity="0" />
  <path d="M251.1878,196.3727 L539.691,484.8759" stroke="#FFFFFF" stroke-width="0.24" fill-opacity="0" />
  <path d="M258.2879,196.1426 L546.7201,484.5748" stroke="#FFFFFF" stroke-width="0.24" fill-opacity="0" />
  <path d="M265.388,195.9125 L553.7492,484.2737" stroke="#FFFFFF" stroke-width="0.24" fill-opacity="0" />
  <path d="M272.4881,195.6824 L560.7783,483.9726" stroke="#FFFFFF" stroke-width="0.24" fill-opacity="0" />
  <path d="M279.5882,195.4523 L567.8074,483.6714" stroke="#FFFFFF" stroke-width="0.24" fill-opacity="0" />
  <path d="M286.6884,195.2222 L574.8365,483.3704" stroke="#FFFFFF" stroke-width="0.24" fill-opacity="0" />
  <path d="M293.7885,194.9921 L581.8656,483.0692" stroke="#FFFFFF" stroke-width="0.24" fill-opacity="0" />
  <path d="M300.8885,194.762 L588.8947,482.7681" stroke="#FFFFFF" stroke-width="0.24" fill-opacity="0" />
  <path d="M307.9887,194.5319 L595.9238,482.467" stroke="#FFFFFF" stroke-width="0.24" fill-opacity="0" />
  <path d="M315.0888,194.3017 L602.9529,482.1659" stroke="#FFFFFF" stroke-width="0.24" fill-opacity="0" />
  <path d="M322.1889,194.0716 L609.982,481.8648" stroke="#FFFFFF" stroke-width="0.24" fill-opacity="0" />
  <path d="M329.289,193.8415 L617.0111,481.5637" stroke="#FFFFFF" stroke-width="0.24" fill-opacity="0" />
  <path d="M336.3891,193.6114 L624.0402,481.2625" stroke="#FFFFFF" stroke-width="0.24" fill-opacity="0" />
  <path d="M343.4892,193.3813 L631.0693,480.9614" stroke="#FFFFFF" stroke-width="0.24" fill-opacity="0" />
  <path d="M350.5893,193.1512 L633.7828,476.3448" stroke="#FFFFFF" stroke-width="0.24" fill-opacity="0" />
  <path d="M357.6894,192.9211 L632.89,468.1217" stroke="#FFFFFF" stroke-width="0.24" fill-opacity="0" />
  <path d="M364.7895,192.691 L631.9972,459.8987" stroke="#FFFFFF" stroke-width="0.24" fill-opacity="0" />
  <path d="M371.8896,192.4609 L631.1043,451.6756" stroke="#FFFFFF" stroke-width="0.24" fill-opacity="0" />
  <path d="M378.9897,192.2308 L630.2115,443.4525" stroke="#FFFFFF" stroke-width="0.24" fill-opacity="0" />
  <path d="M386.0898,192.0007 L629.3186,435.2295" stroke="#FFFFFF" stroke-width="0.24" fill-opacity="0" />
  <path d="M393.1899,191.7706 L628.4258,427.0064" stroke="#FFFFFF" stroke-width="0.24" fill-opacity="0" />
  <path d="M400.2901,191.5405 L627.533,418.7833" stroke="#FFFFFF" stroke-width="0.24" fill-opacity="0" />
  <path d="M407.3902,191.3103 L626.6401,410.5603" stroke="#FFFFFF" stroke-width="0.24" fill-opacity="0" />
  <path d="M414.4903,191.0802 L625.7473,402.3372" stroke="#FFFFFF" stroke-width="0.24" fill-opacity="0" />
  <path d="M421.5904,190.8501 L624.8544,394.1142" stroke="#FFFFFF" stroke-width="0.24" fill-opacity="0" />
  <path d="M428.6905,190.62 L623.9615,385.8911" stroke="#FFFFFF" stroke-width="0.24" fill-opacity="0" />
  <path d="M435.7906,190.3899 L623.0687,377.668" stroke="#FFFFFF" stroke-width="0.24" fill-opacity="0" />
  <path d="M442.8907,190.1598 L622.1759,369.445" stroke="#FFFFFF" stroke-width="0.24" fill-opacity="0" />
  <path d="M449.9908,189.9297 L621.283,361.2219" stroke="#FFFFFF" stroke-width="0.24" fill-opacity="0" />
  <path d="M457.0909,189.6996 L620.3902,352.9989" stroke="#FFFFFF" stroke-width="0.24" fill-opacity="0" />
  <path d="M464.191,189.4695 L619.4973,344.7758" stroke="#FFFFFF" stroke-width="0.24" fill-opacity="0" />
  <path d="M471.2911,189.2394 L618.6045,336.5527" stroke="#FFFFFF" stroke-width="0.24" fill-opacity="0" />
  <path d="M478.3912,189.0093 L617.7116,328.3297" stroke="#FFFFFF" stroke-width="0.24" fill-opacity="0" />
  <path d="M485.4913,188.7792 L616.8188,320.1066" stroke="#FFFFFF" stroke-width="0.24" fill-opacity="0" />
  <path d="M492.5915,188.5491 L615.926,311.8836" stroke="#FFFFFF" stroke-width="0.24" fill-opacity="0" />
  <path d="M499.6916,188.319 L615.0331,303.6605" stroke="#FFFFFF" stroke-width="0.24" fill-opacity="0" />
  <path d="M506.7917,188.0889 L614.1403,295.4374" stroke="#FFFFFF" stroke-width="0.24" fill-opacity="0" />
  <path d="M513.8918,187.8587 L613.2474,287.2144" stroke="#FFFFFF" stroke-width="0.24" fill-opacity="0" />
  <path d="M520.9919,187.6286 L612.3546,278.9913" stroke="#FFFFFF" stroke-width="0.24" fill-opacity="0" />
  <path d="M528.092,187.3985 L611.4617,270.7683" stroke="#FFFFFF" stroke-width="0.24" fill-opacity="0" />
  <path d="M535.1921,187.1684 L610.5689,262.5452" stroke="#FFFFFF" stroke-width="0.24" fill-opacity="0" />
  <path d="M542.2922,186.9383 L609.676,254.3221" stroke="#FFFFFF" stroke-width="0.24" fill-opacity="0" />
  <path d="M549.3923,186.7082 L608.7832,246.0991" stroke="#FFFFFF" stroke-width="0.24" fill-opacity="0" />
  <path d="M556.4924,186.4781 L607.8903,237.876" stroke="#FFFFFF" stroke-width="0.24" fill-opacity="0" />
  <path d="M563.5925,186.248 L606.9975,229.653" stroke="#FFFFFF" stroke-width="0.24" fill-opacity="0" />
  <path d="M570.6926,186.0179 L606.1047,221.4299" stroke="#FFFFFF" stroke-width="0.24" fill-opacity="0" />
  <path d="M577.7927,185.7878 L605.2119,213.2068" stroke="#FFFFFF" stroke-width="0.24" fill-opacity="0" />
  <path d="M584.8928,185.5577 L604.319,204.9838" stroke="#FFFFFF" stroke-width="0.24" fill-opacity="0" />
  <path d="M591.9929,185.3275 L603.4261,196.7607" stroke="#FFFFFF" stroke-width="0.24" fill-opacity="0" />
  <path d="M599.0931,185.0974 L602.5333,188.5377" stroke="#FFFFFF" stroke-width="0.24" fill-opacity="0" />
  <path d="M706.9052,404.3299 L707.0797,404.1554" stroke="#FFFFFF" stroke-width="0.24" fill-opacity="0" />
  <path d="M699.2469,404.658 L706.3618,397.5431" stroke="#FFFFFF" stroke-width="0.24" fill-opacity="0" />
  <path d="M691.5887,404.9861 L705.6439,390.9308" stroke="#FFFFFF" stroke-width="0.24" fill-opacity="0" />
  <path d="M683.9304,405.3141 L704.9259,384.3186" stroke="#FFFFFF" stroke-width="0.24" fill-opacity="0" />
  <path d="M676.2721,405.6422 L704.2079,377.7063" stroke="#FFFFFF" stroke-width="0.24" fill-opacity="0" />
  <path d="M668.6138,405.9702 L703.49,371.0941" stroke="#FFFFFF" stroke-width="0.24" fill-opacity="0" />
  <path d="M660.9555,406.2983 L702.772,364.4818" stroke="#FFFFFF" stroke-width="0.24" fill-opacity="0" />
  <path d="M653.2972,406.6264 L702.0541,357.8695" stroke="#FFFFFF" stroke-width="0.24" fill-opacity="0" />
  <path d="M645.6389,406.9545 L701.3362,351.2573" stroke="#FFFFFF" stroke-width="0.24" fill-opacity="0" />
  <path d="M637.9807,407.2825 L700.6182,344.645" stroke="#FFFFFF" stroke-width="0.24" fill-opacity="0" />
  <path d="M630.3224,407.6106 L699.9003,338.0327" stroke="#FFFFFF" stroke-width="0.24" fill-opacity="0" />
  <path d="M622.6641,407.9387 L699.1823,331.4204" stroke="#FFFFFF" stroke-width="0.24" fill-opacity="0" />
  <path d="M615.0058,408.2667 L698.4644,324.8082" stroke="#FFFFFF" stroke-width="0.24" fill-opacity="0" />
  <path d="M607.3475,408.5948 L697.7464,318.1959" stroke="#FFFFFF" stroke-width="0.24" fill-opacity="0" />
  <path d="M599.6893,408.9229 L697.0284,311.5836" stroke="#FFFFFF" stroke-width="0.24" fill-opacity="0" />
  <path d="M592.0309,409.2509 L696.3105,304.9714" stroke="#FFFFFF" stroke-width="0.24" fill-opacity="0" />
  <path d="M584.3727,409.579 L695.5926,298.3591" stroke="#FFFFFF" stroke-width="0.24" fill-opacity="0" />
  <path d="M576.7144,409.9071 L694.8746,291.7469" stroke="#FFFFFF" stroke-width="0.24" fill-opacity="0" />
  <path d="M569.0561,410.2352 L694.1567,285.1346" stroke="#FFFFFF" stroke-width="0.24" fill-opacity="0" />
  <path d="M561.3978,410.5632 L693.4387,278.5223" stroke="#FFFFFF" stroke-width="0.24" fill-opacity="0" />
  <path d="M553.7396,410.8913 L692.7208,271.9101" stroke="#FFFFFF" stroke-width="0.24" fill-opacity="0" />
  <path d="M546.0812,411.2194 L692.0029,265.2978" stroke="#FFFFFF" stroke-width="0.24" fill-opacity="0" />
  <path d="M538.423,411.5474 L691.2849,258.6855" stroke="#FFFFFF" stroke-width="0.24" fill-opacity="0" />
  <path d="M530.7647,411.8755 L690.567,252.0733" stroke="#FFFFFF" stroke-width="0.24" fill-opacity="0" />
  <path d="M523.1064,412.2036 L689.849,245.461" stroke="#FFFFFF" stroke-width="0.24" fill-opacity="0" />
  <path d="M515.4481,412.5316 L689.131,238.8487" stroke="#FFFFFF" stroke-width="0.24" fill-opacity="0" />
  <path d="M507.7899,412.8597 L688.4131,232.2365" stroke="#FFFFFF" stroke-width="0.24" fill-opacity="0" />
  <path d="M500.1316,413.1878 L687.6951,225.6242" stroke="#FFFFFF" stroke-width="0.24" fill-opacity="0" />
  <path d="M492.4733,413.5158 L686.9772,219.0119" stroke="#FFFFFF" stroke-width="0.24" fill-opacity="0" />
  <path d="M484.815,413.8439 L686.2593,212.3997" stroke="#FFFFFF" stroke-width="0.24" fill-opacity="0" />
  <path d="M477.1567,414.172 L685.5413,205.7874" stroke="#FFFFFF" stroke-width="0.24" fill-opacity="0" />
  <path d="M469.4984,414.5001 L684.8234,199.1751" stroke="#FFFFFF" stroke-width="0.24" fill-opacity="0" />
  <path d="M461.8401,414.8281 L684.1054,192.5629" stroke="#FFFFFF" stroke-width="0.24" fill-opacity="0" />
  <path d="M454.1819,415.1562 L683.3875,185.9506" stroke="#FFFFFF" stroke-width="0.24" fill-opacity="0" />
  <path d="M446.5236,415.4843 L682.6695,179.3383" stroke="#FFFFFF" stroke-width="0.24" fill-opacity="0" />
  <path d="M438.8653,415.8123 L681.9515,172.7261" stroke="#FFFFFF" stroke-width="0.24" fill-opacity="0" />
  <path d="M431.207,416.1404 L681.2336,166.1138" stroke="#FFFFFF" stroke-width="0.24" fill-opacity="0" />
  <path d="M423.5487,416.4685 L680.5157,159.5015" stroke="#FFFFFF" stroke-width="0.24" fill-opacity="0" />
  <path d="M415.8904,416.7965 L679.7977,152.8893" stroke="#FFFFFF" stroke-width="0.24" fill-opacity="0" />
  <path d="M408.2321,417.1246 L679.0798,146.277" stroke="#FFFFFF" stroke-width="0.24" fill-opacity="0" />
  <path d="M400.5739,417.4527 L678.3618,139.6647" stroke="#FFFFFF" stroke-width="0.24" fill-opacity="0" />
  <path d="M392.9156,417.7808 L677.6439,133.0525" stroke="#FFFFFF" stroke-width="0.24" fill-opacity="0" />
  <path d="M385.2573,418.1088 L676.926,126.4402" stroke="#FFFFFF" stroke-width="0.24" fill-opacity="0" />
  <path d="M377.599,418.4369 L676.208,119.8279" stroke="#FFFFFF" stroke-width="0.24" fill-opacity="0" />
  <path d="M369.9407,418.765 L675.4901,113.2157" stroke="#FFFFFF" stroke-width="0.24" fill-opacity="0" />
  <path d="M362.2824,419.093 L672.8095,108.566" stroke="#FFFFFF" stroke-width="0.24" fill-opacity="0" />
  <path d="M354.6242,419.4211 L665.2338,108.8115" stroke="#FFFFFF" stroke-width="0.24" fill-opacity="0" />
  <path d="M346.9659,419.7491 L657.658,109.057" stroke="#FFFFFF" stroke-width="0.24" fill-opacity="0" />
  <path d="M339.3076,420.0772 L650.0823,109.3026" stroke="#FFFFFF" stroke-width="0.24" fill-opacity="0" />
  <path d="M331.6493,420.4053 L642.5065,109.5481" stroke="#FFFFFF" stroke-width="0.24" fill-opacity="0" />
  <path d="M323.991,420.7334 L634.9308,109.7936" stroke="#FFFFFF" stroke-width="0.24" fill-opacity="0" />
  <path d="M316.3328,421.0614 L627.3551,110.0391" stroke="#FFFFFF" stroke-width="0.24" fill-opacity="0" />
  <path d="M308.6745,421.3895 L619.7793,110.2846" stroke="#FFFFFF" stroke-width="0.24" fill-opacity="0" />
  <path d="M301.0162,421.7176 L612.2036,110.5302" stroke="#FFFFFF" stroke-width="0.24" fill-opacity="0" />
  <path d="M293.3579,422.0457 L604.6279,110.7757" stroke="#FFFFFF" stroke-width="0.24" fill-opacity="0" />
  <path d="M285.6996,422.3737 L597.0521,111.0212" stroke="#FFFFFF" stroke-width="0.24" fill-opacity="0" />
  <path d="M278.0414,422.7018 L589.4764,111.2667" stroke="#FFFFFF" stroke-width="0.24" fill-opacity="0" />
  <path d="M270.3831,423.0298 L581.9006,111.5123" stroke="#FFFFFF" stroke-width="0.24" fill-opacity="0" />
  <path d="M262.7248,423.3579 L574.3249,111.7578" stroke="#FFFFFF" stroke-width="0.24" fill-opacity="0" />
  <path d="M255.0665,423.686 L566.7492,112.0033" stroke="#FFFFFF" stroke-width="0.24" fill-opacity="0" />
  <path d="M247.4082,424.0141 L559.1735,112.2488" stroke="#FFFFFF" stroke-width="0.24" fill-opacity="0" />
  <path d="M239.7499,424.3421 L551.5977,112.4943" stroke="#FFFFFF" stroke-width="0.24" fill-opacity="0" />
  <path d="M232.0916,424.6702 L544.022,112.7399" stroke="#FFFFFF" stroke-width="0.24" fill-opacity="0" />
  <path d="M224.4333,424.9983 L536.4462,112.9854" stroke="#FFFFFF" stroke-width="0.24" fill-opacity="0" />
  <path d="M216.7751,425.3264 L528.8705,113.2309" stroke="#FFFFFF" stroke-width="0.24" fill-opacity="0" />
  <path d="M209.1168,425.6544 L521.2947,113.4764" stroke="#FFFFFF" stroke-width="0.24" fill-opacity="0" />
  <path d="M201.4585,425.9825 L513.719,113.722" stroke="#FFFFFF" stroke-width="0.24" fill-opacity="0" />
  <path d="M193.8002,426.3105 L506.1433,113.9675" stroke="#FFFFFF" stroke-width="0.24" fill-opacity="0" />
  <path d="M186.1419,426.6386 L498.5675,114.213" stroke="#FFFFFF" stroke-width="0.24" fill-opacity="0" />
  <path d="M178.4836,426.9667 L490.9918,114.4585" stroke="#FFFFFF" stroke-width="0.24" fill-opacity="0" />
  <path d="M177.2616,420.8585 L483.4161,114.704" stroke="#FFFFFF" stroke-width="0.24" fill-opacity="0" />
  <path d="M176.8073,413.9826 L475.8403,114.9496" stroke="#FFFFFF" stroke-width="0.24" fill-opacity="0" />
  <path d="M176.353,407.1067 L468.2646,115.1951" stroke="#FFFFFF" stroke-width="0.24" fill-opacity="0" />
  <path d="M175.8987,400.2308 L460.6889,115.4406" stroke="#FFFFFF" stroke-width="0.24" fill-opacity="0" />
  <path d="M175.4444,393.3549 L453.1131,115.6861" stroke="#FFFFFF" stroke-width="0.24" fill-opacity="0" />
  <path d="M174.9901,386.4789 L445.5374,115.9317" stroke="#FFFFFF" stroke-width="0.24" fill-opacity="0" />
  <path d="M174.5358,379.603 L437.9616,116.1772" stroke="#FFFFFF" stroke-width="0.24" fill-opacity="0" />
  <path d="M174.0815,372.7271 L430.3859,116.4227" stroke="#FFFFFF" stroke-width="0.24" fill-opacity="0" />
  <path d="M173.6272,365.8512 L422.8102,116.6682" stroke="#FFFFFF" stroke-width="0.24" fill-opacity="0" />
  <path d="M173.1729,358.9753 L415.2344,116.9137" stroke="#FFFFFF" stroke-width="0.24" fill-opacity="0" />
  <path d="M172.7186,352.0994 L407.6587,117.1593" stroke="#FFFFFF" stroke-width="0.24" fill-opacity="0" />
  <path d="M172.2643,345.2235 L400.083,117.4048" stroke="#FFFFFF" stroke-width="0.24" fill-opacity="0" />
  <path d="M171.81,338.3476 L392.5072,117.6503" stroke="#FFFFFF" stroke-width="0.24" fill-opacity="0" />
  <path d="M171.3557,331.4716 L384.9315,117.8958" stroke="#FFFFFF" stroke-width="0.24" fill-opacity="0" />
  <path d="M170.9014,324.5958 L377.3557,118.1413" stroke="#FFFFFF" stroke-width="0.24" fill-opacity="0" />
  <path d="M170.4471,317.7198 L369.78,118.3869" stroke="#FFFFFF" stroke-width="0.24" fill-opacity="0" />
  <path d="M169.9928,310.8439 L362.2043,118.6324" stroke="#FFFFFF" stroke-width="0.24" fill-opacity="0" />
  <path d="M169.5385,303.968 L354.6285,118.8779" stroke="#FFFFFF" stroke-width="0.24" fill-opacity="0" />
  <path d="M169.0841,297.0921 L347.0528,119.1235" stroke="#FFFFFF" stroke-width="0.24" fill-opacity="0" />
  <path d="M168.6298,290.2162 L339.4771,119.369" stroke="#FFFFFF" stroke-width="0.24" fill-opacity="0" />
  <path d="M168.1755,283.3403 L331.9013,119.6145" stroke="#FFFFFF" stroke-width="0.24" fill-opacity="0" />
  <path d="M167.7212,276.4644 L324.3256,119.86" stroke="#FFFFFF" stroke-width="0.24" fill-opacity="0" />
  <path d="M167.2669,269.5885 L316.7498,120.1055" stroke="#FFFFFF" stroke-width="0.24" fill-opacity="0" />
  <path d="M166.8126,262.7126 L309.1741,120.3511" stroke="#FFFFFF" stroke-width="0.24" fill-opacity="0" />
  <path d="M166.3583,255.8367 L301.5984,120.5966" stroke="#FFFFFF" stroke-width="0.24" fill-opacity="0" />
  <path d="M165.904,248.9607 L294.0226,120.8421" stroke="#FFFFFF" stroke-width="0.24" fill-opacity="0" />
  <path d="M165.4497,242.0848 L286.4469,121.0876" stroke="#FFFFFF" stroke-width="0.24" fill-opacity="0" />
  <path d="M164.9954,235.2089 L278.8712,121.3331" stroke="#FFFFFF" stroke-width="0.24" fill-opacity="0" />
  <path d="M164.5411,228.333 L271.2954,121.5787" stroke="#FFFFFF" stroke-width="0.24" fill-opacity="0" />
  <path d="M164.0868,221.4571 L263.7197,121.8242" stroke="#FFFFFF" stroke-width="0.24" fill-opacity="0" />
  <path d="M163.6325,214.5812 L256.144,122.0697" stroke="#FFFFFF" stroke-width="0.24" fill-opacity="0" />
  <path d="M163.1782,207.7053 L248.5682,122.3152" stroke="#FFFFFF" stroke-width="0.24" fill-opacity="0" />
  <path d="M162.7239,200.8294 L240.9925,122.5608" stroke="#FFFFFF" stroke-width="0.24" fill-opacity="0" />
  <path d="M162.2696,193.9535 L233.4168,122.8063" stroke="#FFFFFF" stroke-width="0.24" fill-opacity="0" />
  <path d="M161.8153,187.0776 L225.841,123.0518" stroke="#FFFFFF" stroke-width="0.24" fill-opacity="0" />
  <path d="M161.361,180.2016 L218.2653,123.2973" stroke="#FFFFFF" stroke-width="0.24" fill-opacity="0" />
  <path d="M160.9066,173.3257 L210.6895,123.5429" stroke="#FFFFFF" stroke-width="0.24" fill-opacity="0" />
  <path d="M160.4524,166.4498 L203.1138,123.7884" stroke="#FFFFFF" stroke-width="0.24" fill-opacity="0" />
  <path d="M159.9981,159.5739 L195.5381,124.0339" stroke="#FFFFFF" stroke-width="0.24" fill-opacity="0" />
  <path d="M159.5437,152.698 L187.9623,124.2794" stroke="#FFFFFF" stroke-width="0.24" fill-opacity="0" />
  <path d="M159.0894,145.8221 L180.3866,124.5249" stroke="#FFFFFF" stroke-width="0.24" fill-opacity="0" />
  <path d="M158.6351,138.9462 L172.8109,124.7705" stroke="#FFFFFF" stroke-width="0.24" fill-opacity="0" />
  <path d="M158.1808,132.0703 L165.2351,125.016" stroke="#FFFFFF" stroke-width="0.24" fill-opacity="0" />
</svg>