<?xml version="1.0" encoding="utf-8"?>
<!-- Generator: Adobe Illustrator 24.2.1, SVG Export Plug-In . SVG Version: 6.00 Build 0)  -->
<svg version="1.1" xmlns="http://www.w3.org/2000/svg" xmlns:xlink="http://www.w3.org/1999/xlink" x="0px" y="0px"
	 viewBox="0 0 792 612" style="enable-background:new 0 0 792 612;" xml:space="preserve">
<style type="text/css">
	.st0{fill-opacity:0;stroke:#FFFFFF;stroke-width:0.24;}
	.st1{display:none;}
	.st2{display:inline;fill-opacity:0;stroke:#FFFFFF;stroke-width:0.24;}
</style>
<g id="Layer_1">
	<path class="st0" d="M706.9,404.3l0.2-0.2"/>
	<path class="st0" d="M699.2,404.7l7.1-7.1"/>
	<path class="st0" d="M691.6,405l14.1-14.1"/>
	<path class="st0" d="M683.9,405.3l21-21"/>
	<path class="st0" d="M676.3,405.6l27.9-27.9"/>
	<path class="st0" d="M668.6,406l34.9-34.9"/>
	<path class="st0" d="M661,406.3l41.8-41.8"/>
	<path class="st0" d="M653.3,406.6l48.8-48.8"/>
	<path class="st0" d="M645.6,407l55.7-55.7"/>
	<path class="st0" d="M638,407.3l62.6-62.6"/>
	<path class="st0" d="M630.3,407.6l69.6-69.6"/>
	<path class="st0" d="M622.7,407.9l76.5-76.5"/>
	<path class="st0" d="M615,408.3l83.5-83.5"/>
	<path class="st0" d="M607.3,408.6l90.4-90.4"/>
	<path class="st0" d="M599.7,408.9l97.3-97.3"/>
	<path class="st0" d="M592,409.3L696.3,305"/>
	<path class="st0" d="M584.4,409.6l111.2-111.2"/>
	<path class="st0" d="M576.7,409.9l118.2-118.2"/>
	<path class="st0" d="M569.1,410.2l125.1-125.1"/>
	<path class="st0" d="M561.4,410.6l132-132"/>
	<path class="st0" d="M553.7,410.9l139-139"/>
	<path class="st0" d="M546.1,411.2L692,265.3"/>
	<path class="st0" d="M538.4,411.5l152.9-152.9"/>
	<path class="st0" d="M530.8,411.9l159.8-159.8"/>
	<path class="st0" d="M523.1,412.2l166.7-166.7"/>
	<path class="st0" d="M515.4,412.5l173.7-173.7"/>
	<path class="st0" d="M507.8,412.9l180.6-180.6"/>
	<path class="st0" d="M500.1,413.2l187.6-187.6"/>
	<path class="st0" d="M492.5,413.5L687,219"/>
	<path class="st0" d="M484.8,413.8l201.4-201.4"/>
	<path class="st0" d="M477.2,414.2l208.4-208.4"/>
	<path class="st0" d="M469.5,414.5l215.3-215.3"/>
	<path class="st0" d="M461.8,414.8l222.3-222.3"/>
	<path class="st0" d="M454.2,415.2L683.4,186"/>
	<path class="st0" d="M446.5,415.5l236.1-236.1"/>
	<path class="st0" d="M438.9,415.8L682,172.7"/>
	<path class="st0" d="M431.2,416.1l250-250"/>
	<path class="st0" d="M423.5,416.5l257-257"/>
	<path class="st0" d="M415.9,416.8l263.9-263.9"/>
	<path class="st0" d="M408.2,417.1l270.8-270.8"/>
	<path class="st0" d="M400.6,417.5l277.8-277.8"/>
	<path class="st0" d="M392.9,417.8l284.7-284.7"/>
	<path class="st0" d="M385.3,418.1l291.7-291.7"/>
	<path class="st0" d="M377.6,418.4l298.6-298.6"/>
	<path class="st0" d="M369.9,418.8l305.5-305.5"/>
	<path class="st0" d="M362.3,419.1l310.5-310.5"/>
	<path class="st0" d="M354.6,419.4l310.6-310.6"/>
	<path class="st0" d="M347,419.7l310.7-310.7"/>
	<path class="st0" d="M339.3,420.1l310.8-310.8"/>
	<path class="st0" d="M331.6,420.4l310.9-310.9"/>
	<path class="st0" d="M324,420.7l310.9-310.9"/>
	<path class="st0" d="M316.3,421.1l311-311"/>
	<path class="st0" d="M308.7,421.4l311.1-311.1"/>
	<path class="st0" d="M301,421.7l311.2-311.2"/>
	<path class="st0" d="M293.4,422l311.3-311.3"/>
	<path class="st0" d="M285.7,422.4L597.1,111"/>
	<path class="st0" d="M278,422.7l311.4-311.4"/>
	<path class="st0" d="M270.4,423l311.5-311.5"/>
	<path class="st0" d="M262.7,423.4l311.6-311.6"/>
	<path class="st0" d="M255.1,423.7L566.7,112"/>
	<path class="st0" d="M247.4,424l311.8-311.8"/>
	<path class="st0" d="M239.7,424.3l311.8-311.8"/>
	<path class="st0" d="M232.1,424.7L544,112.7"/>
	<path class="st0" d="M224.4,425l312-312"/>
	<path class="st0" d="M216.8,425.3l312.1-312.1"/>
	<path class="st0" d="M209.1,425.7l312.2-312.2"/>
	<path class="st0" d="M201.5,426l312.3-312.3"/>
	<path class="st0" d="M193.8,426.3L506.1,114"/>
	<path class="st0" d="M186.1,426.6l312.4-312.4"/>
	<path class="st0" d="M178.5,427L491,114.5"/>
	<path class="st0" d="M177.3,420.9l306.2-306.2"/>
	<path class="st0" d="M176.8,414l299-299"/>
	<path class="st0" d="M176.4,407.1l291.9-291.9"/>
	<path class="st0" d="M175.9,400.2l284.8-284.8"/>
	<path class="st0" d="M175.4,393.4l277.7-277.7"/>
	<path class="st0" d="M175,386.5l270.5-270.5"/>
	<path class="st0" d="M174.5,379.6L438,116.2"/>
	<path class="st0" d="M174.1,372.7l256.3-256.3"/>
	<path class="st0" d="M173.6,365.9l249.2-249.2"/>
	<path class="st0" d="M173.2,359l242.1-242.1"/>
	<path class="st0" d="M172.7,352.1l234.9-234.9"/>
	<path class="st0" d="M172.3,345.2l227.8-227.8"/>
	<path class="st0" d="M171.8,338.3l220.7-220.7"/>
	<path class="st0" d="M171.4,331.5l213.6-213.6"/>
	<path class="st0" d="M170.9,324.6l206.5-206.5"/>
	<path class="st0" d="M170.4,317.7l199.3-199.3"/>
	<path class="st0" d="M170,310.8l192.2-192.2"/>
	<path class="st0" d="M169.5,304l185.1-185.1"/>
	<path class="st0" d="M169.1,297.1l178-178"/>
	<path class="st0" d="M168.6,290.2l170.8-170.8"/>
	<path class="st0" d="M168.2,283.3l163.7-163.7"/>
	<path class="st0" d="M167.7,276.5l156.6-156.6"/>
	<path class="st0" d="M167.3,269.6l149.5-149.5"/>
	<path class="st0" d="M166.8,262.7l142.4-142.4"/>
	<path class="st0" d="M166.4,255.8l135.2-135.2"/>
	<path class="st0" d="M165.9,249L294,120.8"/>
	<path class="st0" d="M165.4,242.1l121-121"/>
	<path class="st0" d="M165,235.2l113.9-113.9"/>
	<path class="st0" d="M164.5,228.3l106.8-106.8"/>
	<path class="st0" d="M164.1,221.5l99.6-99.6"/>
	<path class="st0" d="M163.6,214.6l92.5-92.5"/>
	<path class="st0" d="M163.2,207.7l85.4-85.4"/>
	<path class="st0" d="M162.7,200.8l78.3-78.3"/>
	<path class="st0" d="M162.3,194l71.1-71.1"/>
	<path class="st0" d="M161.8,187.1l64-64"/>
	<path class="st0" d="M161.4,180.2l56.9-56.9"/>
	<path class="st0" d="M160.9,173.3l49.8-49.8"/>
	<path class="st0" d="M160.5,166.4l42.7-42.7"/>
	<path class="st0" d="M160,159.6l35.5-35.5"/>
	<path class="st0" d="M159.5,152.7l28.4-28.4"/>
	<path class="st0" d="M159.1,145.8l21.3-21.3"/>
	<path class="st0" d="M158.6,138.9l14.2-14.2"/>
	<path class="st0" d="M158.2,132.1l7.1-7.1"/>
</g>
<g id="Layer_2" class="st1">
	<path class="st2" d="M104.4,496.7l6.5,6.5"/>
	<path class="st2" d="M103.9,488.9l14.1,14.1"/>
	<path class="st2" d="M103.4,481l21.6,21.6"/>
	<path class="st2" d="M102.8,473.2l29.2,29.2"/>
	<path class="st2" d="M102.3,465.3L139,502"/>
	<path class="st2" d="M101.8,457.5l44.3,44.3"/>
	<path class="st2" d="M101.3,449.6l51.8,51.8"/>
	<path class="st2" d="M100.8,441.8l59.4,59.4"/>
	<path class="st2" d="M100.2,433.9l66.9,66.9"/>
	<path class="st2" d="M99.7,426.1l74.5,74.5"/>
	<path class="st2" d="M99.2,418.2l82,82"/>
	<path class="st2" d="M98.7,410.4l89.5,89.5"/>
	<path class="st2" d="M98.2,402.5l97.1,97.1"/>
	<path class="st2" d="M97.6,394.7l104.6,104.6"/>
	<path class="st2" d="M97.1,386.8L209.3,499"/>
	<path class="st2" d="M96.6,379l119.7,119.7"/>
	<path class="st2" d="M96.1,371.1l127.3,127.3"/>
	<path class="st2" d="M95.6,363.3l134.8,134.8"/>
	<path class="st2" d="M95.1,355.4l142.4,142.4"/>
	<path class="st2" d="M94.5,347.6l149.9,149.9"/>
	<path class="st2" d="M94,339.7l157.5,157.5"/>
	<path class="st2" d="M93.5,331.9l165,165"/>
	<path class="st2" d="M93,324l172.6,172.6"/>
	<path class="st2" d="M92.5,316.2l180.1,180.1"/>
	<path class="st2" d="M91.9,308.3L279.6,496"/>
	<path class="st2" d="M91.4,300.5l195.2,195.2"/>
	<path class="st2" d="M90.9,292.6l202.8,202.8"/>
	<path class="st2" d="M90.4,284.8l210.3,210.3"/>
	<path class="st2" d="M89.9,277l217.9,217.9"/>
	<path class="st2" d="M89.4,269.1l225.4,225.4"/>
	<path class="st2" d="M88.8,261.3l233,233"/>
	<path class="st2" d="M88.3,253.4l240.5,240.5"/>
	<path class="st2" d="M87.8,245.6l248.1,248.1"/>
	<path class="st2" d="M87.3,237.7l255.6,255.6"/>
	<path class="st2" d="M86.8,229.9L349.9,493"/>
	<path class="st2" d="M86.2,222l270.7,270.7"/>
	<path class="st2" d="M85.7,214.2L364,492.4"/>
	<path class="st2" d="M85.2,206.3L371,492.1"/>
	<path class="st2" d="M87.9,201.7L378,491.8"/>
	<path class="st2" d="M95,201.4l290.1,290.1"/>
	<path class="st2" d="M102.1,201.2l290,290"/>
	<path class="st2" d="M109.2,201l289.9,289.9"/>
	<path class="st2" d="M116.3,200.7l289.9,289.9"/>
	<path class="st2" d="M123.4,200.5l289.8,289.8"/>
	<path class="st2" d="M130.5,200.3L420.2,490"/>
	<path class="st2" d="M137.6,200.1l289.6,289.6"/>
	<path class="st2" d="M144.7,199.8l289.6,289.6"/>
	<path class="st2" d="M151.8,199.6l289.5,289.5"/>
	<path class="st2" d="M158.9,199.4l289.4,289.4"/>
	<path class="st2" d="M166,199.1l289.4,289.4"/>
	<path class="st2" d="M173.1,198.9l289.3,289.3"/>
	<path class="st2" d="M180.2,198.7l289.2,289.2"/>
	<path class="st2" d="M187.3,198.4l289.1,289.1"/>
	<path class="st2" d="M194.4,198.2l289.1,289.1"/>
	<path class="st2" d="M201.5,198l289,289"/>
	<path class="st2" d="M208.6,197.8l288.9,288.9"/>
	<path class="st2" d="M215.7,197.5l288.9,288.9"/>
	<path class="st2" d="M222.8,197.3l288.8,288.8"/>
	<path class="st2" d="M229.9,197.1l288.7,288.7"/>
	<path class="st2" d="M237,196.8l288.6,288.6"/>
	<path class="st2" d="M244.1,196.6l288.6,288.6"/>
	<path class="st2" d="M251.2,196.4l288.5,288.5"/>
	<path class="st2" d="M258.3,196.1l288.4,288.4"/>
	<path class="st2" d="M265.4,195.9l288.4,288.4"/>
	<path class="st2" d="M272.5,195.7L560.8,484"/>
	<path class="st2" d="M279.6,195.5l288.2,288.2"/>
	<path class="st2" d="M286.7,195.2l288.1,288.1"/>
	<path class="st2" d="M293.8,195l288.1,288.1"/>
	<path class="st2" d="M300.9,194.8l288,288"/>
	<path class="st2" d="M308,194.5l287.9,287.9"/>
	<path class="st2" d="M315.1,194.3L603,482.2"/>
	<path class="st2" d="M322.2,194.1L610,481.9"/>
	<path class="st2" d="M329.3,193.8L617,481.6"/>
	<path class="st2" d="M336.4,193.6L624,481.3"/>
	<path class="st2" d="M343.5,193.4L631.1,481"/>
	<path class="st2" d="M350.6,193.2l283.2,283.2"/>
	<path class="st2" d="M357.7,192.9l275.2,275.2"/>
	<path class="st2" d="M364.8,192.7L632,459.9"/>
	<path class="st2" d="M371.9,192.5l259.2,259.2"/>
	<path class="st2" d="M379,192.2l251.2,251.2"/>
	<path class="st2" d="M386.1,192l243.2,243.2"/>
	<path class="st2" d="M393.2,191.8L628.4,427"/>
	<path class="st2" d="M400.3,191.5l227.2,227.2"/>
	<path class="st2" d="M407.4,191.3l219.2,219.3"/>
	<path class="st2" d="M414.5,191.1l211.3,211.3"/>
	<path class="st2" d="M421.6,190.9l203.3,203.3"/>
	<path class="st2" d="M428.7,190.6L624,385.9"/>
	<path class="st2" d="M435.8,190.4l187.3,187.3"/>
	<path class="st2" d="M442.9,190.2l179.3,179.3"/>
	<path class="st2" d="M450,189.9l171.3,171.3"/>
	<path class="st2" d="M457.1,189.7L620.4,353"/>
	<path class="st2" d="M464.2,189.5l155.3,155.3"/>
	<path class="st2" d="M471.3,189.2l147.3,147.3"/>
	<path class="st2" d="M478.4,189l139.3,139.3"/>
	<path class="st2" d="M485.5,188.8l131.3,131.3"/>
	<path class="st2" d="M492.6,188.5l123.3,123.3"/>
	<path class="st2" d="M499.7,188.3L615,303.7"/>
	<path class="st2" d="M506.8,188.1l107.3,107.3"/>
	<path class="st2" d="M513.9,187.9l99.4,99.4"/>
	<path class="st2" d="M521,187.6l91.4,91.4"/>
	<path class="st2" d="M528.1,187.4l83.4,83.4"/>
	<path class="st2" d="M535.2,187.2l75.4,75.4"/>
	<path class="st2" d="M542.3,186.9l67.4,67.4"/>
	<path class="st2" d="M549.4,186.7l59.4,59.4"/>
	<path class="st2" d="M556.5,186.5l51.4,51.4"/>
	<path class="st2" d="M563.6,186.2l43.4,43.4"/>
	<path class="st2" d="M570.7,186l35.4,35.4"/>
	<path class="st2" d="M577.8,185.8l27.4,27.4"/>
	<path class="st2" d="M584.9,185.6l19.4,19.4"/>
	<path class="st2" d="M592,185.3l11.4,11.4"/>
	<path class="st2" d="M599.1,185.1l3.4,3.4"/>
</g>
</svg>
